<?xml version="1.0" encoding="UTF-8" standalone="no"?>
<!-- Created with Inkscape (http://www.inkscape.org/) -->

<svg
   width="1280"
   height="720"
   viewBox="0 0 1280 720"
   version="1.1"
   id="svg5"
   xml:space="preserve"
   inkscape:version="1.2.2 (b0a8486541, 2022-12-01)"
   sodipodi:docname="slides_bg_big.svg"
   xmlns:inkscape="http://www.inkscape.org/namespaces/inkscape"
   xmlns:sodipodi="http://sodipodi.sourceforge.net/DTD/sodipodi-0.dtd"
   xmlns="http://www.w3.org/2000/svg"
   xmlns:svg="http://www.w3.org/2000/svg"><sodipodi:namedview
     id="namedview7"
     pagecolor="#ffffff"
     bordercolor="#000000"
     borderopacity="0.25"
     inkscape:showpageshadow="2"
     inkscape:pageopacity="0.0"
     inkscape:pagecheckerboard="0"
     inkscape:deskcolor="#d1d1d1"
     inkscape:document-units="mm"
     showgrid="true"
     inkscape:zoom="1"
     inkscape:cx="-106"
     inkscape:cy="123.5"
     inkscape:window-width="2293"
     inkscape:window-height="1379"
     inkscape:window-x="1680"
     inkscape:window-y="32"
     inkscape:window-maximized="0"
     inkscape:current-layer="layer1"><inkscape:grid
       type="xygrid"
       id="grid113" /></sodipodi:namedview><defs
     id="defs2"><rect
       x="260.57938"
       y="-118.50691"
       width="194.23132"
       height="100.69295"
       id="rect1383" /></defs><g
     inkscape:label="Layer 1"
     inkscape:groupmode="layer"
     id="layer1"><path
       id="path3696"
       style="display:inline;fill:#44c9f5;fill-opacity:1"
       inkscape:label="bgblue"
       d="M 250.39258 0.083984375 L 61.380859 720.01562 L 1279.9766 720.01562 L 1279.9766 0.083984375 L 250.39258 0.083984375 z " /><path
       id="path3838"
       style="font-weight:bold;font-size:96px;font-family:'Arial Rounded MT Bold';-inkscape-font-specification:'Arial Rounded MT Bold,  Bold';letter-spacing:0px;fill:#000000"
       d="m 79.023438,74.230469 c -2.875252,0.02173 -5.709513,1.706563 -6.884593,4.368177 -1.453663,3.095482 -0.925704,6.600926 -1.02947,9.90526 0.01162,17.249464 -0.02324,34.499504 0.01742,51.748614 0.06461,2.90081 1.004738,6.10174 3.568515,7.75725 2.414907,1.52462 5.586208,1.63877 8.21875,0.63085 2.808852,-1.12389 4.51273,-4.02633 4.844389,-6.94329 0.294392,-2.78575 0.08444,-5.59684 0.147799,-8.39342 0.04924,-5.04576 -0.116594,-10.09681 0.12431,-15.13861 0.171909,-2.39985 0.338448,-4.95351 1.787799,-6.97975 1.733626,-2.71646 5.005747,-4.35818 8.225197,-4.01059 1.794748,0.0642 3.774344,0.81505 4.515034,2.58285 1.76705,3.80037 1.34647,8.10546 1.41016,12.17578 0.0206,6.22636 -0.0414,12.45436 0.0312,18.67969 0.1223,2.82756 1.13463,5.90493 3.66016,7.46484 2.39622,1.44588 5.51019,1.57771 8.08398,0.53321 2.75146,-1.16062 4.4874,-3.98508 4.82407,-6.88649 0.29834,-2.72764 0.0866,-5.48209 0.15054,-8.22093 -0.0234,-6.83261 0.0471,-13.66655 -0.0356,-20.49835 -0.13172,-3.76862 -0.63188,-7.6786 -2.67163,-10.93999 -2.36823,-4.312148 -6.73945,-7.349827 -11.53092,-8.335936 -5.52864,-1.119978 -11.562616,-0.293881 -16.365386,2.748882 -0.773372,0.503866 -1.509823,1.06367 -2.208984,1.666015 -0.023,-5.086358 0.04631,-10.174569 -0.03516,-15.259765 -0.12642,-2.873562 -1.325147,-5.883712 -3.855469,-7.447266 -1.479648,-0.934191 -3.260412,-1.276321 -4.992187,-1.207031 z" /><path
       id="path3840"
       style="font-weight:bold;font-size:96px;font-family:'Arial Rounded MT Bold';-inkscape-font-specification:'Arial Rounded MT Bold,  Bold';letter-spacing:0px;fill:#000000"
       d="m 152.2793,93.283203 c -7.09045,0.247768 -14.29946,2.981353 -19.0943,8.342407 -4.71967,5.2023 -6.83163,12.33675 -6.85042,19.26716 -0.0835,6.09286 1.31843,12.35679 4.8598,17.39821 4.17715,6.15295 11.26504,10.02094 18.60683,10.77567 6.55817,0.69367 13.51157,-0.20872 19.19276,-3.73955 5.21601,-3.14201 9.05977,-8.32798 10.8283,-14.12983 1.77687,-5.76505 1.90055,-12.01198 0.55664,-17.88086 -1.29017,-5.43955 -4.19436,-10.56834 -8.58168,-14.096071 -5.19137,-4.279176 -12.04854,-6.140632 -18.70374,-5.954004 -0.2714,0.0056 -0.5428,0.01125 -0.81419,0.01687 z m 2.09961,13.455077 c 2.8557,0.0694 5.61602,1.5245 7.24273,3.87996 2.53305,3.4855 2.94454,7.99522 2.77582,12.17454 -0.17924,3.99861 -1.33163,8.29449 -4.52583,10.95009 -2.70326,2.21279 -6.61301,2.53036 -9.83647,1.3919 -3.40054,-1.25103 -5.41792,-4.68867 -6.20846,-8.06338 -0.88756,-3.81249 -0.88499,-7.85041 0.0184,-11.65969 0.74909,-3.1206 2.47366,-6.261 5.47402,-7.69921 1.55391,-0.7951 3.32849,-1.06457 5.0598,-0.97421 z" /><path
       id="path3842"
       style="font-weight:bold;font-size:96px;font-family:'Arial Rounded MT Bold';-inkscape-font-specification:'Arial Rounded MT Bold,  Bold';letter-spacing:0px;fill:#000000"
       d="m 190.53906,93.255859 c -3.90034,-0.08554 -7.55987,3.310328 -7.58398,7.242191 0.11719,3.03539 1.44309,5.84316 2.33046,8.70433 3.50335,10.30786 6.93334,20.64102 10.48422,30.93248 1.03086,2.96292 2.32251,6.18588 5.14644,7.86909 2.59692,1.56857 5.91813,1.6119 8.73614,0.64839 2.03067,-0.70453 3.5392,-2.39944 4.38676,-4.33192 1.97095,-4.04127 2.84289,-8.489 4.14973,-12.76436 1.18185,-4.16452 2.3637,-8.32904 3.54555,-12.49356 2.14544,7.25857 4.22978,14.53601 6.40796,21.78434 0.69862,2.3755 1.72187,4.75891 3.63973,6.4099 2.44672,2.15348 6.05895,2.42791 9.09879,1.60068 2.89737,-0.91644 5.00193,-3.50537 5.97461,-6.30859 2.22411,-5.82478 4.09101,-11.77859 6.14635,-17.66408 2.25971,-6.67339 4.5757,-13.32897 6.80395,-20.01219 0.75222,-2.42681 1.29576,-5.233808 -0.0402,-7.563827 -1.44704,-2.690487 -4.54969,-4.354818 -7.59561,-4.029436 -2.08818,0.07141 -4.07879,1.128362 -5.29466,2.829295 -1.35981,1.836515 -1.74174,4.158988 -2.41086,6.295788 -2.17884,7.41543 -4.37331,14.82643 -6.55815,22.24015 -2.14212,-7.4084 -4.18883,-14.84532 -6.39412,-22.23487 -0.75096,-2.35939 -1.4381,-4.905349 -3.34687,-6.625314 -1.74854,-1.896895 -4.40146,-2.665543 -6.92444,-2.515957 -2.43937,0.01305 -4.84503,1.07425 -6.411,2.961739 -1.79351,1.879897 -2.23327,4.526952 -3.02735,6.903422 -2.07978,7.14868 -4.09682,14.31596 -6.15208,21.47192 -2.34566,-7.9643 -4.6105,-15.95318 -7.00716,-23.90196 -0.71756,-2.001791 -1.35336,-4.164324 -2.86198,-5.730854 -1.38785,-1.32774 -3.37942,-1.739874 -5.24219,-1.716797 z" /><path
       id="path3844"
       style="font-weight:bold;font-size:96px;font-family:'Arial Rounded MT Bold';-inkscape-font-specification:'Arial Rounded MT Bold,  Bold';letter-spacing:0px;fill:#000000"
       d="m 287.36133,93.189453 c -6.76115,0.244118 -13.6824,2.676998 -18.38122,7.690967 -4.90311,5.1841 -7.08662,12.43086 -7.21555,19.45386 -0.15827,6.46686 1.19707,13.19746 5.05062,18.51323 3.27745,4.65168 8.29931,7.95401 13.80035,9.33748 4.83474,1.23167 9.92858,1.39578 14.85599,0.66895 4.31509,-0.71458 8.54875,-2.3332 12.03967,-5.001 2.97935,-2.32774 5.61208,-5.53469 6.11772,-9.392 0.2498,-2.25747 -0.73313,-4.69428 -2.76563,-5.83008 -2.06892,-1.18055 -4.77775,-1.25286 -6.90039,-0.16992 -1.42454,0.89791 -2.50107,2.24407 -3.79864,3.30886 -2.53345,2.30849 -5.43872,4.62603 -8.98624,4.9324 -3.28729,0.45381 -6.89095,-0.48158 -9.13113,-3.03228 -1.80303,-1.99532 -2.79092,-4.61063 -3.08985,-7.25976 8.07736,-0.0181 16.15561,0.0363 24.23242,-0.0273 2.86788,-0.15161 5.91514,-0.52041 8.32617,-2.21093 2.39882,-1.86725 2.98283,-5.11197 2.88162,-7.9843 -0.14567,-5.27063 -2.15512,-10.48095 -5.55349,-14.50789 -4.02936,-4.647236 -9.87179,-7.622954 -15.97743,-8.283092 -1.82537,-0.225615 -3.66796,-0.271033 -5.50499,-0.207145 z m 1.58203,12.888667 c 2.71879,0.0323 5.39144,1.38152 6.89835,3.66741 1.08754,1.60398 1.64028,3.5036 1.94931,5.399 -6.21875,0 -12.4375,0 -18.65625,0 0.5618,-3.1356 1.99616,-6.4036 4.9001,-8.01557 1.48226,-0.84294 3.22019,-1.13074 4.90849,-1.05084 z" /><path
       id="path3846"
       style="font-weight:bold;font-size:96px;font-family:'Arial Rounded MT Bold';-inkscape-font-specification:'Arial Rounded MT Bold,  Bold';letter-spacing:0px;fill:#000000"
       d="m 340.14844,93.261719 c -5.48838,0.07343 -11.1601,1.504031 -15.44567,5.074439 -3.89413,3.207532 -6.16743,8.385492 -5.53089,13.433372 0.30643,3.22349 1.93924,6.22915 4.35156,8.36719 3.37046,3.16673 7.84386,4.68332 12.18245,5.99762 4.1158,1.31261 8.51283,1.85696 12.37144,3.88957 1.48282,0.66592 2.1693,2.54045 1.69467,4.04297 -1.05589,1.9118 -3.36624,2.70575 -5.43222,2.86616 -2.80913,0.13989 -5.89801,-0.0242 -8.24477,-1.75631 -1.89866,-1.34592 -3.03773,-3.41029 -4.23173,-5.3447 -1.06067,-1.61395 -2.62571,-3.04132 -4.61766,-3.27502 -2.72256,-0.50297 -5.73867,0.49774 -7.35977,2.80367 -1.89409,2.44772 -1.59683,5.86588 -0.46397,8.57487 1.46306,3.56946 4.4194,6.33797 7.81377,8.07319 5.6947,3.09389 12.38231,3.60671 18.73525,3.11648 5.40854,-0.43674 11.02787,-1.90975 15.12953,-5.64588 3.57437,-3.18213 5.31217,-8.02496 5.28787,-12.74296 0.10298,-3.34523 -1.24063,-6.64442 -3.53283,-9.0645 -3.49888,-3.72422 -8.43371,-5.61226 -13.24456,-6.98673 -3.8776,-1.08015 -7.86159,-1.81783 -11.64849,-3.20212 -1.19481,-0.56128 -2.82862,-1.14176 -3.05422,-2.63147 -0.21323,-1.44251 1.26594,-2.31192 2.39204,-2.79794 2.235,-0.85238 4.77163,-0.8236 7.05781,-0.18892 2.19321,0.71632 3.57862,2.66211 4.99559,4.35223 1.45385,1.7102 3.21941,3.40508 5.54675,3.7108 2.78504,0.42302 5.97282,-0.35375 7.67842,-2.74448 1.91655,-2.51847 1.59697,-6.12782 0.003,-8.72427 -2.34454,-4.013982 -6.63166,-6.475072 -10.98431,-7.761962 -3.70022,-1.130813 -7.59258,-1.496849 -11.44928,-1.435299 z" /><path
       id="path3848"
       style="font-weight:bold;font-size:96px;font-family:'Arial Rounded MT Bold';-inkscape-font-specification:'Arial Rounded MT Bold,  Bold';letter-spacing:0px;fill:#000000"
       d="m 383.64844,75.863281 c -3.49381,-0.04076 -6.86152,2.412135 -7.77735,5.806641 -0.68753,2.441108 -0.47443,5.014551 -0.54297,7.521484 0,1.734375 10e-6,3.46875 0,5.203125 -2.63442,0.03979 -5.45753,1.221302 -6.68138,3.681152 -1.39532,2.691247 -0.59726,6.333827 1.90795,8.092287 1.36621,1.0133 3.09584,1.40674 4.77343,1.43555 0.0208,8.19508 -0.0419,16.39128 0.0319,24.58567 0.13999,3.26519 0.31811,6.63002 1.56354,9.69118 1.48874,3.53792 4.88547,6.03873 8.6019,6.8036 3.79707,0.83321 7.75017,0.71982 11.58271,0.20219 3.08216,-0.50518 6.43169,-1.54653 8.29405,-4.23752 1.76001,-2.55382 1.43257,-6.4062 -0.98629,-8.43798 -1.40839,-1.42288 -3.52412,-1.8695 -5.44916,-1.49386 -1.90778,0.22451 -3.85856,1.01567 -5.77677,0.49299 -0.90608,-0.52902 -0.89429,-1.77987 -0.97804,-2.71029 -0.18053,-4.82051 -0.0448,-9.64744 -0.087,-14.47059 0,-3.47188 0,-6.94375 0,-10.41563 2.83996,-0.0127 5.95348,-0.19777 8.27915,-2.01613 2.7387,-2.3049 2.60672,-7.046513 -0.078,-9.345197 -1.8015,-1.732631 -4.43731,-1.968092 -6.81367,-1.873047 -0.50582,-0.123343 -1.6165,0.358168 -1.3875,-0.5 -0.0728,-3.60581 0.19695,-7.236225 -0.27921,-10.82202 -0.23328,-2.306076 -1.52277,-4.446291 -3.46984,-5.709063 -1.37562,-0.968 -3.04342,-1.500614 -4.72751,-1.484542 z" /><text
       xml:space="preserve"
       style="font-style:normal;font-variant:normal;font-weight:normal;font-stretch:normal;font-size:37.3333px;font-family:'Arial Rounded MT Bold';-inkscape-font-specification:'Arial Rounded MT Bold, ';fill:#000000;fill-opacity:1;stroke-width:1.81444"
       x="223.21432"
       y="182.65465"
       id="text1277"
       inkscape:label="hogeschool"><tspan
         sodipodi:role="line"
         id="tspan1275"
         x="223.21432"
         y="182.65465"
         style="font-style:normal;font-variant:normal;font-weight:bold;font-stretch:normal;font-size:37.3333px;font-family:Arial-Rounded;-inkscape-font-specification:'Arial-Rounded Bold';fill:#ffffff;stroke-width:1.81444">hogeschool</tspan></text><path
       style="display:none;fill:#ffffff;fill-opacity:1;stroke:#fffffd;stroke-width:1.00131;stroke-opacity:1"
       d="M 250.42799,0.27726093 61.725327,722.17338 v 0.45528"
       id="path1578" /></g></svg>
